{"title":"Funny Lady (1975) Barbra Streisand (STEREO,opt.subs ENG+NORDIC)","uid":4972836,"size":733043108,"categoryP":"video","categoryS":"movies","magnet":"?xt=urn:btih:c134990215326e3c1ae4db8041fd6348ea486333&amp;dn=Funny+Lady+%281975%29+Barbra+Streisand+%28STEREO%2Copt.subs+ENG%2BNORDIC%29&amp;tr=udp%3A%2F%2Ftracker.openbittorrent.com%3A80&amp;tr=udp%3A%2F%2Fopen.demonii.com%3A1337&amp;tr=udp%3A%2F%2Ftracker.coppersurfer.tk%3A6969&amp;tr=udp%3A%2F%2Fexodus.desync.com%3A6969","seeders":4,"leechers":0,"uploader":"Kuthumi","files":-1,"time":1245859829,"description":" &lt;a href=&quot;http://www.imdb.com/title/tt0073026/&quot; rel=&quot;nofollow&quot; target=&quot;_NEW&quot;&gt;http://www.imdb.com/title/tt0073026/&lt;/a&gt;\n\nOptional subtitles in separate idx/sub files (Work in Windows Media Player etc., see enclosed Note): English, Finnish, Norwegian, Swedish. (Sorry, Danish friends, your language was out of synch. Please use Norwegian or English.)\n\nContinued story from &quot;Funny Girl&quot;, of singer Fanny Brice's stormy relationship with showman Billy Rose (James Caan). This is the one with all the insanely lavish theatre production that fall apart.\n\nThis film has been desecrated over the years by the TV channels sending fullscreen pan-and-scan versions with mono sound. I could not find a torrent for it, so I made a rip for you. \n\nSurprisingly good picture and stereo quality for such an old film.\n\nMy ripping procedure now produces decent quality for such a long film compressed \ninto just 700 MiB.\n\nWidescreen DVDrip XviD 2-pass 704x288, great stereo sound AC3.\nRuns well in both my standalone DivX players.\n\nMediaInfo analysis:\nFormat/Info                      : Audio Video Interleave\nFile size                        : 696 MiB\nDuration                         : 2h 12mn\nOveral bit rate                  : 736 Kbps\n\nVideo\nFormat                           : MPEG-4 Visual\nFormat profile                   : Streaming Video@L1\nFormat settings, BVOP            : Yes\nFormat settings, QPel            : No\nFormat settings, GMC             : No warppoints\nFormat settings, Matrix          : Default\nMuxing mode                      : Packet Bitstream\nCodec ID                         : XVID\nCodec ID/Hint                    : XviD\nDuration                         : 2h 12mn\nBit rate                         : 598 Kbps\nWidth                            : 704 pixels\nHeight                           : 288 pixels\nDisplay aspect ratio             : 2.444\nFrame rate                       : 25.000 fps\nResolution                       : 8 bits\nColorimetry                      : 4:2:0\nScan type                        : Progressive\nBits/(Pixel*Frame)               : 0.118\nStream size                      : 566 MiB\nWriting library                  : XviD 1.2.0.dev47 (UTC 2006-11-01)\n\nAudio\nFormat                           : MPEG Audio\nFormat version                   : Version 1\nFormat profile                   : Layer 3\nCodec ID                         : 55\nCodec ID/Hint                    : MP3\nDuration                         : 2h 12mn\nBit rate mode                    : Constant\nBit rate                         : 128 Kbps\nMinimum bit rate                 : 128 Kbps\nChannel(s)                       : 2 channels\nSampling rate                    : 48.0 KHz\nResolution                       : 16 bits\nStream size                      : 121 MiB\nWriting library                  : LAME3.97 \nEncoding settings                : CBR\n\nSource: PAL rental 6.5 Giga (note that PAL/NTSC will give no problems for avi files).","torrent":{"xt":"urn:btih:c134990215326e3c1ae4db8041fd6348ea486333","amp;dn":"Funny+Lady+%281975%29+Barbra+Streisand+%28STEREO%2Copt.subs+ENG%2BNORDIC%29","amp;tr":["udp%3A%2F%2Ftracker.openbittorrent.com%3A80","udp%3A%2F%2Fopen.demonii.com%3A1337","udp%3A%2F%2Ftracker.coppersurfer.tk%3A6969","udp%3A%2F%2Fexodus.desync.com%3A6969"],"infoHash":"c134990215326e3c1ae4db8041fd6348ea486333","infoHashBuffer":{"type":"Buffer","data":[193,52,153,2,21,50,110,60,26,228,219,128,65,253,99,72,234,72,99,51]},"announce":[],"urlList":[]}}